<svg width="16" height="16" viewBox="0 0 16 16" fill="none" xmlns="http://www.w3.org/2000/svg">
<path fill-rule="evenodd" clip-rule="evenodd" d="M12.5123 4.4272L9.52833 8.00787L12.405 11.5825C12.6357 11.8692 12.5903 12.2885 12.3037 12.5199C12.1803 12.6192 12.0323 12.6672 11.8857 12.6672C11.691 12.6672 11.4977 12.5819 11.3657 12.4185L8.147 8.41853C7.94833 8.1712 7.951 7.8172 8.15433 7.57387L11.4877 3.57387C11.7237 3.29053 12.1437 3.2532 12.427 3.48853C12.7097 3.72387 12.7477 4.14453 12.5123 4.4272ZM6.8214 3.57367C7.05673 3.29101 7.47673 3.25301 7.76007 3.48834C8.04273 3.72434 8.08073 4.14434 7.8454 4.42701L4.8614 8.00767L7.73807 11.5823C7.96873 11.869 7.9234 12.289 7.63673 12.5197C7.5134 12.619 7.36607 12.667 7.21873 12.667C7.02407 12.667 6.83073 12.5823 6.6994 12.4183L3.48073 8.41834C3.2814 8.17101 3.28473 7.81767 3.48807 7.57367L6.8214 3.57367Z" fill="#9E9E9E"/>
</svg>
