<svg width="16" height="16" viewBox="0 0 16 16" fill="none" xmlns="http://www.w3.org/2000/svg">
<path fill-rule="evenodd" clip-rule="evenodd" d="M9.30081 3.58184L12.5195 7.58184C12.7188 7.82917 12.7155 8.18251 12.5121 8.42651L9.17881 12.4265C9.04681 12.5845 8.85748 12.6665 8.66614 12.6665C8.51614 12.6665 8.36481 12.6158 8.24014 12.5118C7.95681 12.2765 7.91881 11.8558 8.15481 11.5732L11.1388 7.99251L8.26148 4.41784C8.03081 4.13117 8.07614 3.71117 8.36348 3.48051C8.65014 3.24917 9.06948 3.29517 9.30081 3.58184ZM3.69674 3.48051C3.98341 3.24984 4.40274 3.29517 4.63408 3.58184L7.85274 7.58184C8.05141 7.82917 8.04874 8.18251 7.84541 8.42651L4.51208 12.4265C4.38008 12.5845 4.19074 12.6665 3.99941 12.6665C3.84941 12.6665 3.69808 12.6158 3.57341 12.5118C3.29008 12.2765 3.25208 11.8558 3.48808 11.5732L6.47141 7.99251L3.59474 4.41784C3.36408 4.13117 3.41008 3.71117 3.69674 3.48051Z" fill="#9E9E9E"/>
</svg>
