<svg width="48" height="48" viewBox="0 0 48 48" fill="none" xmlns="http://www.w3.org/2000/svg">
<path d="M45.5644 40.4263L25.4277 5.57429C25.1276 5.05635 24.6096 4.7998 24.0868 4.7998C23.5641 4.7998 23.0413 5.05635 22.746 5.57429L2.60927 40.4263C2.01388 41.4622 2.75933 42.7498 3.95011 42.7498H44.2236C45.4143 42.7498 46.1598 41.4622 45.5644 40.4263ZM22.5379 19.1279C22.5379 18.9149 22.7121 18.7406 22.9251 18.7406H25.2486C25.4616 18.7406 25.6358 18.9149 25.6358 19.1279V28.0345C25.6358 28.2475 25.4616 28.4217 25.2486 28.4217H22.9251C22.7121 28.4217 22.5379 28.2475 22.5379 28.0345V19.1279ZM24.0868 36.1666C23.4788 36.1542 22.8999 35.904 22.4743 35.4696C22.0487 35.0352 21.8103 34.4513 21.8103 33.8432C21.8103 33.235 22.0487 32.6511 22.4743 32.2167C22.8999 31.7824 23.4788 31.5321 24.0868 31.5197C24.6948 31.5321 25.2738 31.7824 25.6994 32.2167C26.125 32.6511 26.3634 33.235 26.3634 33.8432C26.3634 34.4513 26.125 35.0352 25.6994 35.4696C25.2738 35.904 24.6948 36.1542 24.0868 36.1666Z" fill="url(#paint0_linear_6348_79668)"/>
<defs>
<linearGradient id="paint0_linear_6348_79668" x1="24.0868" y1="4.7998" x2="24.0868" y2="42.7498" gradientUnits="userSpaceOnUse">
<stop stop-color="#FCA549"/>
<stop offset="1" stop-color="#F39531"/>
</linearGradient>
</defs>
</svg>
