<svg width="20" height="20" viewBox="0 0 20 20" fill="none" xmlns="http://www.w3.org/2000/svg">
<path fill-rule="evenodd" clip-rule="evenodd" d="M3.26254 5.11643C3.38783 4.8687 3.64546 4.69679 3.93936 4.69679H16.0606C16.3545 4.69679 16.6121 4.86869 16.7374 5.11643L9.99997 9.83263L3.26254 5.11643ZM1.66667 5.44079C1.66654 5.44851 1.66653 5.45623 1.66663 5.46395V14.5453C1.66663 15.797 2.68763 16.818 3.93936 16.818H16.0606C17.3123 16.818 18.3333 15.797 18.3333 14.5453V5.46327M16.8182 6.90938V14.5453C16.8182 14.9602 16.4755 15.3029 16.0606 15.3029H3.93936C3.52443 15.3029 3.18179 14.9602 3.18179 14.5453V6.90939L9.56553 11.378C9.82637 11.5606 10.1736 11.5606 10.4344 11.378L16.8182 6.90938ZM18.3333 5.44161C18.3264 4.19571 17.3081 3.18164 16.0606 3.18164H3.93936C2.69216 3.18164 1.67403 4.19526 1.66667 5.44079" fill="#959595"/>
</svg>
