<svg width="20" height="20" viewBox="0 0 20 20" fill="none" xmlns="http://www.w3.org/2000/svg">
<g opacity="0.6">
<path d="M12.3583 9.40874L8.82501 5.8754C8.74754 5.7973 8.65538 5.7353 8.55383 5.693C8.45228 5.65069 8.34336 5.62891 8.23335 5.62891C8.12334 5.62891 8.01442 5.65069 7.91287 5.693C7.81132 5.7353 7.71915 5.7973 7.64168 5.8754C7.48647 6.03154 7.39935 6.24275 7.39935 6.4629C7.39935 6.68306 7.48647 6.89427 7.64168 7.0504L10.5917 10.0004L7.64168 12.9504C7.48647 13.1065 7.39935 13.3177 7.39935 13.5379C7.39935 13.7581 7.48647 13.9693 7.64168 14.1254C7.71955 14.2026 7.81189 14.2637 7.91342 14.3052C8.01496 14.3467 8.12367 14.3677 8.23335 14.3671C8.34302 14.3677 8.45174 14.3467 8.55327 14.3052C8.6548 14.2637 8.74715 14.2026 8.82501 14.1254L12.3583 10.5921C12.4365 10.5146 12.4984 10.4224 12.5408 10.3209C12.5831 10.2193 12.6048 10.1104 12.6048 10.0004C12.6048 9.89039 12.5831 9.78147 12.5408 9.67992C12.4984 9.57837 12.4365 9.48621 12.3583 9.40874Z" fill="#959595"/>
</g>
</svg>
