<svg width="19" height="18" viewBox="0 0 19 18" fill="none" xmlns="http://www.w3.org/2000/svg">
<path d="M14.75 4.87502H13.79L13.55 4.12502C13.3944 3.68494 13.1058 3.30414 12.7242 3.03539C12.3425 2.76663 11.8868 2.62322 11.42 2.62502H7.58C7.10866 2.6259 6.6495 2.77478 6.26732 3.05065C5.88515 3.32651 5.59926 3.71543 5.45 4.16252L5.21 4.91252H4.25C3.65326 4.91252 3.08097 5.14957 2.65901 5.57153C2.23705 5.99348 2 6.56578 2 7.16252V13.1625C2 13.7593 2.23705 14.3316 2.65901 14.7535C3.08097 15.1755 3.65326 15.4125 4.25 15.4125H14.75C15.3467 15.4125 15.919 15.1755 16.341 14.7535C16.7629 14.3316 17 13.7593 17 13.1625V7.16252C17.005 6.8639 16.9505 6.56728 16.8396 6.28996C16.7288 6.01263 16.5638 5.76015 16.3544 5.54723C16.145 5.33431 15.8952 5.16521 15.6198 5.0498C15.3443 4.93439 15.0487 4.87498 14.75 4.87502ZM15.5 13.125C15.5 13.3239 15.421 13.5147 15.2803 13.6553C15.1397 13.796 14.9489 13.875 14.75 13.875H4.25C4.05109 13.875 3.86032 13.796 3.71967 13.6553C3.57902 13.5147 3.5 13.3239 3.5 13.125V7.12502C3.5 6.9261 3.57902 6.73534 3.71967 6.59469C3.86032 6.45403 4.05109 6.37502 4.25 6.37502H5.75C5.91355 6.38355 6.0754 6.33832 6.21083 6.24623C6.34625 6.15414 6.44782 6.02025 6.5 5.86502L6.905 4.63502C6.95531 4.48605 7.05117 4.35667 7.17903 4.26515C7.30688 4.17363 7.46027 4.12461 7.6175 4.12502H11.4575C11.6147 4.12461 11.7681 4.17363 11.896 4.26515C12.0238 4.35667 12.1197 4.48605 12.17 4.63502L12.575 5.86502C12.6231 6.00808 12.7133 6.13328 12.8337 6.22427C12.9542 6.31526 13.0992 6.3678 13.25 6.37502H14.75C14.9489 6.37502 15.1397 6.45403 15.2803 6.59469C15.421 6.73534 15.5 6.9261 15.5 7.12502V13.125ZM9.5 6.37502C8.90666 6.37502 8.32664 6.55096 7.83329 6.88061C7.33994 7.21025 6.95542 7.67879 6.72836 8.22697C6.5013 8.77514 6.44189 9.37834 6.55764 9.96029C6.6734 10.5422 6.95912 11.0768 7.37868 11.4963C7.79824 11.9159 8.33279 12.2016 8.91473 12.3174C9.49667 12.4331 10.0999 12.3737 10.6481 12.1467C11.1962 11.9196 11.6648 11.5351 11.9944 11.0417C12.3241 10.5484 12.5 9.96836 12.5 9.37502C12.5 8.57937 12.1839 7.81631 11.6213 7.2537C11.0587 6.69109 10.2956 6.37502 9.5 6.37502ZM9.5 10.875C9.20333 10.875 8.91332 10.787 8.66665 10.6222C8.41997 10.4574 8.22771 10.2231 8.11418 9.94904C8.00065 9.67495 7.97094 9.37335 8.02882 9.08238C8.0867 8.79141 8.22956 8.52414 8.43934 8.31436C8.64912 8.10458 8.91639 7.96172 9.20736 7.90384C9.49834 7.84596 9.79994 7.87567 10.074 7.9892C10.3481 8.10273 10.5824 8.29499 10.7472 8.54166C10.912 8.78834 11 9.07834 11 9.37502C11 9.77284 10.842 10.1544 10.5607 10.4357C10.2794 10.717 9.89782 10.875 9.5 10.875Z" fill="#959595"/>
</svg>
