<svg width="20" height="20" viewBox="0 0 20 20" fill="none" xmlns="http://www.w3.org/2000/svg">
<g opacity="0.6">
<path d="M14.1667 5.05032C13.5887 5.0507 13.0288 5.25131 12.5821 5.61802C12.1354 5.98472 11.8295 6.49487 11.7165 7.06166C11.6036 7.62845 11.6905 8.21688 11.9625 8.72682C12.2344 9.23676 12.6747 9.63672 13.2083 9.85865C13.0815 10.1628 12.8673 10.4225 12.5929 10.6049C12.3185 10.7873 11.9962 10.8843 11.6667 10.8837H8.33332C7.74585 10.8861 7.16998 11.0474 6.66665 11.3503V6.56698C7.22266 6.3704 7.69128 5.98359 7.98968 5.47492C8.28807 4.96624 8.39704 4.36845 8.29731 3.78721C8.19759 3.20596 7.89559 2.67868 7.4447 2.29856C6.99381 1.91844 6.42306 1.70996 5.83332 1.70996C5.24358 1.70996 4.67283 1.91844 4.22193 2.29856C3.77104 2.67868 3.46905 3.20596 3.36932 3.78721C3.2696 4.36845 3.37856 4.96624 3.67696 5.47492C3.97536 5.98359 4.44397 6.3704 4.99998 6.56698V13.5336C4.45081 13.7311 3.98803 14.1146 3.69186 14.6174C3.39569 15.1203 3.28478 15.711 3.37836 16.287C3.47194 16.8631 3.76411 17.3882 4.20423 17.7715C4.64436 18.1548 5.2047 18.372 5.78816 18.3855C6.37161 18.399 6.9414 18.2079 7.39879 17.8454C7.85618 17.483 8.17234 16.9719 8.29247 16.4008C8.41261 15.8297 8.32915 15.2345 8.05656 14.7185C7.78397 14.2024 7.33943 13.798 6.79998 13.5753C6.9263 13.2725 7.13918 13.0137 7.41194 12.8314C7.68471 12.649 8.00522 12.5513 8.33332 12.5503H11.6667C12.429 12.5502 13.1683 12.2887 13.7612 11.8095C14.3541 11.3303 14.7649 10.6623 14.925 9.91698C15.4821 9.72767 15.9546 9.34791 16.2594 8.84452C16.5641 8.34114 16.6815 7.7464 16.5909 7.16498C16.5003 6.58357 16.2075 6.05274 15.7641 5.66594C15.3206 5.27913 14.755 5.06113 14.1667 5.05032ZM5.83332 3.38365C5.99814 3.38365 6.15925 3.43252 6.29629 3.52409C6.43333 3.61566 6.54014 3.74581 6.60322 3.89808C6.66629 4.05035 6.68279 4.21791 6.65064 4.37956C6.61848 4.54121 6.53912 4.6897 6.42257 4.80624C6.30603 4.92278 6.15754 5.00215 5.99589 5.0343C5.83424 5.06646 5.66669 5.04996 5.51442 4.98688C5.36214 4.92381 5.23199 4.817 5.14043 4.67996C5.04886 4.54292 4.99998 4.3818 4.99998 4.21698C4.99998 3.99597 5.08778 3.78401 5.24406 3.62773C5.40034 3.47145 5.6123 3.38365 5.83332 3.38365ZM5.83332 16.717C5.6685 16.717 5.50738 16.6681 5.37034 16.5765C5.2333 16.485 5.12649 16.3548 5.06342 16.2026C5.00035 16.0503 4.98384 15.8827 5.016 15.7211C5.04815 15.5594 5.12752 15.4109 5.24406 15.2944C5.36061 15.1779 5.50909 15.0985 5.67074 15.0663C5.83239 15.0342 5.99995 15.0507 6.15222 15.1137C6.30449 15.1768 6.43464 15.2836 6.52621 15.4207C6.61778 15.5577 6.66665 15.7188 6.66665 15.8836C6.66665 16.1047 6.57885 16.3166 6.42257 16.4729C6.26629 16.6292 6.05433 16.717 5.83332 16.717ZM14.1667 8.38365C14.0018 8.38365 13.8407 8.33478 13.7037 8.24321C13.5666 8.15164 13.4598 8.02149 13.3968 7.86922C13.3337 7.71695 13.3172 7.54939 13.3493 7.38774C13.3815 7.22609 13.4609 7.0776 13.5774 6.96106C13.6939 6.84452 13.8424 6.76515 14.0041 6.733C14.1657 6.70084 14.3333 6.71734 14.4856 6.78042C14.6378 6.84349 14.768 6.9503 14.8595 7.08734C14.9511 7.22438 15 7.3855 15 7.55032C15 7.77133 14.9122 7.98329 14.7559 8.13957C14.5996 8.29585 14.3877 8.38365 14.1667 8.38365Z" fill="#959595"/>
</g>
</svg>
