<svg width="20" height="20" viewBox="0 0 20 20" fill="none" xmlns="http://www.w3.org/2000/svg">
<path d="M6.66668 9.16699C6.50186 9.16699 6.34074 9.21587 6.2037 9.30743C6.06666 9.399 5.95985 9.52915 5.89678 9.68142C5.8337 9.83369 5.8172 10.0012 5.84936 10.1629C5.88151 10.3246 5.96088 10.473 6.07742 10.5896C6.19397 10.7061 6.34245 10.7855 6.5041 10.8176C6.66575 10.8498 6.83331 10.8333 6.98558 10.7702C7.13785 10.7072 7.268 10.6003 7.35957 10.4633C7.45114 10.3263 7.50001 10.1651 7.50001 10.0003C7.50001 9.77931 7.41221 9.56735 7.25593 9.41107C7.09965 9.25479 6.88769 9.16699 6.66668 9.16699ZM10 9.16699C9.83519 9.16699 9.67408 9.21587 9.53703 9.30743C9.39999 9.399 9.29318 9.52915 9.23011 9.68142C9.16704 9.83369 9.15054 10.0012 9.18269 10.1629C9.21484 10.3246 9.29421 10.473 9.41076 10.5896C9.5273 10.7061 9.67578 10.7855 9.83744 10.8176C9.99909 10.8498 10.1666 10.8333 10.3189 10.7702C10.4712 10.7072 10.6013 10.6003 10.6929 10.4633C10.7845 10.3263 10.8333 10.1651 10.8333 10.0003C10.8333 9.77931 10.7455 9.56735 10.5893 9.41107C10.433 9.25479 10.221 9.16699 10 9.16699ZM13.3333 9.16699C13.1685 9.16699 13.0074 9.21587 12.8704 9.30743C12.7333 9.399 12.6265 9.52915 12.5634 9.68142C12.5004 9.83369 12.4839 10.0012 12.516 10.1629C12.5482 10.3246 12.6275 10.473 12.7441 10.5896C12.8606 10.7061 13.0091 10.7855 13.1708 10.8176C13.3324 10.8498 13.5 10.8333 13.6522 10.7702C13.8045 10.7072 13.9347 10.6003 14.0262 10.4633C14.1178 10.3263 14.1667 10.1651 14.1667 10.0003C14.1667 9.77931 14.0789 9.56735 13.9226 9.41107C13.7663 9.25479 13.5544 9.16699 13.3333 9.16699ZM10 1.66699C8.90566 1.66699 7.82203 1.88254 6.81098 2.30133C5.79993 2.72012 4.88128 3.33395 4.10745 4.10777C2.54465 5.67057 1.66668 7.79019 1.66668 10.0003C1.65939 11.9246 2.32567 13.7908 3.55001 15.2753L1.88334 16.942C1.76771 17.0592 1.68938 17.208 1.65824 17.3696C1.62709 17.5313 1.64453 17.6986 1.70834 17.8503C1.77756 18.0003 1.88976 18.1263 2.03072 18.2123C2.17167 18.2984 2.33501 18.3406 2.50001 18.3337H10C12.2101 18.3337 14.3298 17.4557 15.8926 15.8929C17.4554 14.3301 18.3333 12.2105 18.3333 10.0003C18.3333 7.79019 17.4554 5.67057 15.8926 4.10777C14.3298 2.54497 12.2101 1.66699 10 1.66699ZM10 16.667H4.50834L5.28334 15.892C5.36208 15.8148 5.42473 15.7228 5.46764 15.6212C5.51055 15.5197 5.53289 15.4106 5.53334 15.3003C5.53021 15.0805 5.44036 14.8709 5.28334 14.717C4.19217 13.627 3.51266 12.1924 3.36059 10.6577C3.20852 9.12287 3.5933 7.58283 4.44937 6.29993C5.30544 5.01702 6.57984 4.07062 8.05544 3.62197C9.53104 3.17332 11.1166 3.25016 12.5419 3.83942C13.9672 4.42868 15.1441 5.49389 15.872 6.85357C16.6 8.21325 16.8341 9.78328 16.5343 11.2962C16.2345 12.8091 15.4194 14.1712 14.228 15.1505C13.0365 16.1299 11.5423 16.6658 10 16.667Z" fill="black"/>
</svg>
