<svg width="16" height="16" viewBox="0 0 16 16" fill="none" xmlns="http://www.w3.org/2000/svg">
<path d="M3.33343 13.3375H6.16009C6.24783 13.338 6.33481 13.3212 6.41603 13.288C6.49726 13.2549 6.57113 13.206 6.63343 13.1442L11.2468 8.52419L13.1401 6.67086C13.2026 6.60888 13.2522 6.53515 13.286 6.45391C13.3199 6.37267 13.3373 6.28553 13.3373 6.19752C13.3373 6.10952 13.3199 6.02238 13.286 5.94114C13.2522 5.8599 13.2026 5.78617 13.1401 5.72419L10.3134 2.86419C10.2515 2.80171 10.1777 2.75211 10.0965 2.71826C10.0152 2.68442 9.9281 2.66699 9.84009 2.66699C9.75209 2.66699 9.66495 2.68442 9.58371 2.71826C9.50247 2.75211 9.42874 2.80171 9.36676 2.86419L7.48676 4.75086L2.86009 9.37086C2.7983 9.43315 2.74942 9.50703 2.71625 9.58825C2.68307 9.66948 2.66625 9.75645 2.66676 9.84419V12.6709C2.66676 12.8477 2.737 13.0172 2.86202 13.1423C2.98705 13.2673 3.15661 13.3375 3.33343 13.3375ZM9.84009 4.27752L11.7268 6.16419L10.7801 7.11086L8.89343 5.22419L9.84009 4.27752ZM4.00009 10.1175L7.95343 6.16419L9.84009 8.05086L5.88676 12.0042H4.00009V10.1175Z" fill="#005AC4"/>
</svg>
