<svg width="16" height="16" viewBox="0 0 16 16" fill="none" xmlns="http://www.w3.org/2000/svg">
<path d="M14.6134 7.73366C13.2667 4.60699 10.7334 2.66699 8.00004 2.66699C5.26671 2.66699 2.73338 4.60699 1.38671 7.73366C1.35 7.81777 1.33105 7.90855 1.33105 8.00033C1.33105 8.0921 1.35 8.18288 1.38671 8.26699C2.73338 11.3937 5.26671 13.3337 8.00004 13.3337C10.7334 13.3337 13.2667 11.3937 14.6134 8.26699C14.6501 8.18288 14.669 8.0921 14.669 8.00033C14.669 7.90855 14.6501 7.81777 14.6134 7.73366ZM8.00004 12.0003C5.88671 12.0003 3.88671 10.4737 2.73338 8.00033C3.88671 5.52699 5.88671 4.00033 8.00004 4.00033C10.1134 4.00033 12.1134 5.52699 13.2667 8.00033C12.1134 10.4737 10.1134 12.0003 8.00004 12.0003ZM8.00004 5.33366C7.47263 5.33366 6.95706 5.49006 6.51852 5.78307C6.07999 6.07609 5.7382 6.49257 5.53637 6.97984C5.33453 7.46711 5.28172 8.00328 5.38462 8.52057C5.48751 9.03785 5.74149 9.513 6.11443 9.88594C6.48737 10.2589 6.96252 10.5129 7.4798 10.6158C7.99709 10.7186 8.53326 10.6658 9.02053 10.464C9.5078 10.2622 9.92428 9.92038 10.2173 9.48185C10.5103 9.04331 10.6667 8.52774 10.6667 8.00033C10.6667 7.29308 10.3858 6.6148 9.88566 6.11471C9.38557 5.61461 8.70729 5.33366 8.00004 5.33366ZM8.00004 9.33366C7.73634 9.33366 7.47855 9.25546 7.25928 9.10895C7.04002 8.96244 6.86912 8.7542 6.76821 8.51057C6.66729 8.26693 6.64088 7.99885 6.69233 7.7402C6.74378 7.48156 6.87077 7.24399 7.05724 7.05752C7.24371 6.87105 7.48128 6.74406 7.73992 6.69261C7.99857 6.64116 8.26665 6.66757 8.51029 6.76849C8.75392 6.8694 8.96216 7.0403 9.10867 7.25956C9.25518 7.47883 9.33338 7.73662 9.33338 8.00033C9.33338 8.35395 9.1929 8.69309 8.94285 8.94313C8.6928 9.19318 8.35367 9.33366 8.00004 9.33366Z" fill="#959595"/>
</svg>
