<svg width="22" height="22" viewBox="0 0 22 22" fill="none" xmlns="http://www.w3.org/2000/svg">
<path d="M16.5 16.4997C16.2569 16.4997 16.0237 16.5963 15.8518 16.7682C15.6799 16.9401 15.5833 17.1732 15.5833 17.4163C15.5833 17.6595 15.4868 17.8926 15.3148 18.0645C15.1429 18.2364 14.9098 18.333 14.6667 18.333H5.5C5.25688 18.333 5.02373 18.2364 4.85182 18.0645C4.67991 17.8926 4.58333 17.6595 4.58333 17.4163V4.58301C4.58333 4.33989 4.67991 4.10673 4.85182 3.93483C5.02373 3.76292 5.25688 3.66634 5.5 3.66634H10.0833V6.41634C10.0833 7.14569 10.3731 7.84516 10.8888 8.36088C11.4045 8.87661 12.104 9.16634 12.8333 9.16634H15.5833V10.083C15.5833 10.3261 15.6799 10.5593 15.8518 10.7312C16.0237 10.9031 16.2569 10.9997 16.5 10.9997C16.7431 10.9997 16.9763 10.9031 17.1482 10.7312C17.3201 10.5593 17.4167 10.3261 17.4167 10.083V8.24967C17.4167 8.24967 17.4167 8.24967 17.4167 8.19467C17.4071 8.11046 17.3887 8.0275 17.3617 7.94717C17.3656 7.91981 17.3656 7.89204 17.3617 7.86467C17.3176 7.77042 17.2588 7.68378 17.1875 7.60801L11.6875 2.10801C11.6117 2.03671 11.5251 1.97792 11.4308 1.93384H11.3392C11.2527 1.88749 11.1601 1.85354 11.0642 1.83301H5.5C4.77065 1.83301 4.07118 2.12274 3.55546 2.63846C3.03973 3.15419 2.75 3.85366 2.75 4.58301V17.4163C2.75 18.1457 3.03973 18.8452 3.55546 19.3609C4.07118 19.8766 4.77065 20.1663 5.5 20.1663H14.6667C15.396 20.1663 16.0955 19.8766 16.6112 19.3609C17.1269 18.8452 17.4167 18.1457 17.4167 17.4163C17.4167 17.1732 17.3201 16.9401 17.1482 16.7682C16.9763 16.5963 16.7431 16.4997 16.5 16.4997ZM11.9167 4.95884L14.2908 7.33301H12.8333C12.5902 7.33301 12.3571 7.23643 12.1852 7.06452C12.0132 6.89261 11.9167 6.65946 11.9167 6.41634V4.95884ZM18.3333 12.833H16.0417C15.921 12.8323 15.8014 12.8554 15.6898 12.9011C15.5781 12.9467 15.4765 13.0139 15.3908 13.0988L14.2542 14.2447L11.6875 11.3113C11.6049 11.2168 11.5038 11.1401 11.3904 11.0862C11.277 11.0323 11.1538 11.0023 11.0283 10.998C10.9028 10.9937 10.7778 11.0152 10.6609 11.0612C10.5441 11.1073 10.438 11.1768 10.3492 11.2655L8.79083 12.833H7.33333C7.09022 12.833 6.85706 12.9296 6.68515 13.1015C6.51324 13.2734 6.41667 13.5066 6.41667 13.7497C6.41667 13.9928 6.51324 14.2259 6.68515 14.3979C6.85706 14.5698 7.09022 14.6663 7.33333 14.6663H9.16667C9.28731 14.667 9.4069 14.6439 9.51858 14.5983C9.63027 14.5527 9.73185 14.4855 9.8175 14.4005L11 13.2547L13.5667 16.188C13.6495 16.2824 13.7508 16.3587 13.8643 16.4124C13.9778 16.466 14.1012 16.4957 14.2267 16.4997C14.3473 16.5004 14.4669 16.4772 14.5786 16.4316C14.6903 16.386 14.7918 16.3188 14.8775 16.2338L16.4175 14.6663H18.3333C18.5764 14.6663 18.8096 14.5698 18.9815 14.3979C19.1534 14.2259 19.25 13.9928 19.25 13.7497C19.25 13.5066 19.1534 13.2734 18.9815 13.1015C18.8096 12.9296 18.5764 12.833 18.3333 12.833Z" fill="white" fill-opacity="0.4"/>
</svg>
