<svg width="22" height="22" viewBox="0 0 22 22" fill="none" xmlns="http://www.w3.org/2000/svg">
<path d="M18.3334 7.33346L12.8334 2.51179C12.3292 2.06084 11.6765 1.81152 11 1.81152C10.3236 1.81152 9.67088 2.06084 9.16669 2.51179L3.66669 7.33346C3.37553 7.59386 3.14318 7.9133 2.98513 8.27052C2.82707 8.62773 2.74692 9.01452 2.75003 9.40513V17.4168C2.75003 18.1461 3.03976 18.8456 3.55548 19.3613C4.07121 19.8771 4.77068 20.1668 5.50003 20.1668H16.5C17.2294 20.1668 17.9288 19.8771 18.4446 19.3613C18.9603 18.8456 19.25 18.1461 19.25 17.4168V9.39596C19.2518 9.00689 19.1711 8.62187 19.013 8.26634C18.855 7.9108 18.6234 7.59284 18.3334 7.33346ZM12.8334 18.3335H9.16669V13.7501C9.16669 13.507 9.26327 13.2739 9.43518 13.1019C9.60709 12.93 9.84024 12.8335 10.0834 12.8335H11.9167C12.1598 12.8335 12.393 12.93 12.5649 13.1019C12.7368 13.2739 12.8334 13.507 12.8334 13.7501V18.3335ZM17.4167 17.4168C17.4167 17.6599 17.3201 17.8931 17.1482 18.065C16.9763 18.2369 16.7431 18.3335 16.5 18.3335H14.6667V13.7501C14.6667 13.0208 14.377 12.3213 13.8612 11.8056C13.3455 11.2899 12.646 11.0001 11.9167 11.0001H10.0834C9.35401 11.0001 8.65454 11.2899 8.13882 11.8056C7.62309 12.3213 7.33336 13.0208 7.33336 13.7501V18.3335H5.50003C5.25691 18.3335 5.02375 18.2369 4.85185 18.065C4.67994 17.8931 4.58336 17.6599 4.58336 17.4168V9.39596C4.58352 9.26581 4.6114 9.13718 4.66514 9.01864C4.71888 8.9001 4.79725 8.79436 4.89503 8.70846L10.395 3.89596C10.5623 3.749 10.7774 3.66795 11 3.66795C11.2227 3.66795 11.4377 3.749 11.605 3.89596L17.105 8.70846C17.2028 8.79436 17.2812 8.9001 17.3349 9.01864C17.3886 9.13718 17.4165 9.26581 17.4167 9.39596V17.4168Z" fill="white"/>
</svg>
