<svg width="20" height="20" viewBox="0 0 20 20" fill="none" xmlns="http://www.w3.org/2000/svg">
<path d="M15.8334 1.66699H4.16669C3.50365 1.66699 2.86776 1.93038 2.39892 2.39923C1.93008 2.86807 1.66669 3.50395 1.66669 4.16699V15.8337C1.66669 16.4967 1.93008 17.1326 2.39892 17.6014C2.86776 18.0703 3.50365 18.3337 4.16669 18.3337H15.8334C15.9704 18.3317 16.1071 18.3178 16.2417 18.292L16.4917 18.2337H16.55H16.5917L16.9 18.117L17.0084 18.0587C17.0917 18.0087 17.1834 17.967 17.2667 17.9087C17.378 17.8268 17.4837 17.7377 17.5834 17.642L17.6417 17.567C17.7235 17.4841 17.7987 17.3949 17.8667 17.3003L17.9417 17.192C17.9999 17.0992 18.0501 17.0016 18.0917 16.9003C18.1146 16.8603 18.1341 16.8185 18.15 16.7753C18.1917 16.6753 18.2167 16.567 18.25 16.4587V16.3337C18.2973 16.1708 18.3252 16.003 18.3334 15.8337V4.16699C18.3334 3.50395 18.07 2.86807 17.6011 2.39923C17.1323 1.93038 16.4964 1.66699 15.8334 1.66699ZM4.16669 16.667C3.94567 16.667 3.73371 16.5792 3.57743 16.4229C3.42115 16.2666 3.33335 16.0547 3.33335 15.8337V12.242L6.07502 9.49199C6.15249 9.41389 6.24466 9.35189 6.34621 9.30958C6.44776 9.26728 6.55668 9.24549 6.66669 9.24549C6.7767 9.24549 6.88562 9.26728 6.98717 9.30958C7.08872 9.35189 7.18088 9.41389 7.25835 9.49199L14.425 16.667H4.16669ZM16.6667 15.8337C16.6659 15.9364 16.6461 16.0381 16.6084 16.1337C16.5893 16.1743 16.567 16.2133 16.5417 16.2503C16.5194 16.2856 16.4943 16.319 16.4667 16.3503L12.0084 11.892L12.7417 11.1587C12.8192 11.0806 12.9113 11.0186 13.0129 10.9762C13.1144 10.9339 13.2233 10.9122 13.3334 10.9122C13.4434 10.9122 13.5523 10.9339 13.6538 10.9762C13.7554 11.0186 13.8476 11.0806 13.925 11.1587L16.6667 13.9087V15.8337ZM16.6667 11.5503L15.1 10.0003C14.6231 9.54782 13.9908 9.29556 13.3334 9.29556C12.6759 9.29556 12.0436 9.54782 11.5667 10.0003L10.8334 10.7337L8.43335 8.33366C7.95645 7.88115 7.3241 7.62889 6.66669 7.62889C6.00927 7.62889 5.37692 7.88115 4.90002 8.33366L3.33335 9.88366V4.16699C3.33335 3.94598 3.42115 3.73402 3.57743 3.57774C3.73371 3.42146 3.94567 3.33366 4.16669 3.33366H15.8334C16.0544 3.33366 16.2663 3.42146 16.4226 3.57774C16.5789 3.73402 16.6667 3.94598 16.6667 4.16699V11.5503Z" fill="#959595"/>
</svg>
