<svg width="24" height="24" viewBox="0 0 24 24" fill="none" xmlns="http://www.w3.org/2000/svg">
<path d="M3 11H14.59L12.29 8.71C12.1968 8.61676 12.1228 8.50607 12.0723 8.38425C12.0219 8.26243 11.9959 8.13186 11.9959 8C11.9959 7.86814 12.0219 7.73757 12.0723 7.61575C12.1228 7.49393 12.1968 7.38324 12.29 7.29C12.3832 7.19676 12.4939 7.1228 12.6158 7.07234C12.7376 7.02188 12.8681 6.99591 13 6.99591C13.1319 6.99591 13.2624 7.02188 13.3842 7.07234C13.5061 7.1228 13.6168 7.19676 13.71 7.29L17.71 11.29C17.801 11.3851 17.8724 11.4972 17.92 11.62C18.02 11.8635 18.02 12.1365 17.92 12.38C17.8724 12.5028 17.801 12.6149 17.71 12.71L13.71 16.71C13.617 16.8037 13.5064 16.8781 13.3846 16.9289C13.2627 16.9797 13.132 17.0058 13 17.0058C12.868 17.0058 12.7373 16.9797 12.6154 16.9289C12.4936 16.8781 12.383 16.8037 12.29 16.71C12.1963 16.617 12.1219 16.5064 12.0711 16.3846C12.0203 16.2627 11.9942 16.132 11.9942 16C11.9942 15.868 12.0203 15.7373 12.0711 15.6154C12.1219 15.4936 12.1963 15.383 12.29 15.29L14.59 13H3C2.73478 13 2.48043 12.8946 2.29289 12.7071C2.10536 12.5196 2 12.2652 2 12C2 11.7348 2.10536 11.4804 2.29289 11.2929C2.48043 11.1054 2.73478 11 3 11ZM21 3C21.2652 3 21.5196 3.10536 21.7071 3.29289C21.8946 3.48043 22 3.73478 22 4V20C22 20.2652 21.8946 20.5196 21.7071 20.7071C21.5196 20.8946 21.2652 21 21 21C20.7348 21 20.4804 20.8946 20.2929 20.7071C20.1054 20.5196 20 20.2652 20 20V4C20 3.73478 20.1054 3.48043 20.2929 3.29289C20.4804 3.10536 20.7348 3 21 3Z" fill="#959595"/>
</svg>
