<svg width="22" height="22" viewBox="0 0 22 22" fill="none" xmlns="http://www.w3.org/2000/svg">
<path d="M3.40084 14.9325C3.31366 14.849 3.21087 14.7836 3.09834 14.74C2.87517 14.6483 2.62485 14.6483 2.40168 14.74C2.28915 14.7836 2.18635 14.849 2.09918 14.9325C2.01572 15.0197 1.9503 15.1225 1.90668 15.235C1.83648 15.4019 1.8173 15.5859 1.85156 15.7637C1.88582 15.9416 1.97198 16.1053 2.09918 16.2342C2.18828 16.3151 2.29059 16.3802 2.40168 16.4267C2.5114 16.4752 2.63004 16.5002 2.75001 16.5002C2.86997 16.5002 2.98862 16.4752 3.09834 16.4267C3.20943 16.3802 3.31174 16.3151 3.40084 16.2342C3.52804 16.1053 3.6142 15.9416 3.64846 15.7637C3.68272 15.5859 3.66354 15.4019 3.59334 15.235C3.54971 15.1225 3.4843 15.0197 3.40084 14.9325ZM6.41668 7.33333H19.25C19.4931 7.33333 19.7263 7.23676 19.8982 7.06485C20.0701 6.89294 20.1667 6.65978 20.1667 6.41667C20.1667 6.17355 20.0701 5.94039 19.8982 5.76849C19.7263 5.59658 19.4931 5.5 19.25 5.5H6.41668C6.17356 5.5 5.9404 5.59658 5.7685 5.76849C5.59659 5.94039 5.50001 6.17355 5.50001 6.41667C5.50001 6.65978 5.59659 6.89294 5.7685 7.06485C5.9404 7.23676 6.17356 7.33333 6.41668 7.33333ZM3.40084 10.3492C3.27194 10.222 3.10825 10.1358 2.93042 10.1015C2.7526 10.0673 2.56861 10.0865 2.40168 10.1567C2.29059 10.2031 2.18828 10.2682 2.09918 10.3492C2.01572 10.4363 1.9503 10.5391 1.90668 10.6517C1.85818 10.7614 1.83313 10.88 1.83313 11C1.83313 11.12 1.85818 11.2386 1.90668 11.3483C1.9531 11.4594 2.01821 11.5617 2.09918 11.6508C2.18828 11.7318 2.29059 11.7969 2.40168 11.8433C2.5114 11.8918 2.63004 11.9169 2.75001 11.9169C2.86997 11.9169 2.98862 11.8918 3.09834 11.8433C3.20943 11.7969 3.31174 11.7318 3.40084 11.6508C3.48181 11.5617 3.54692 11.4594 3.59334 11.3483C3.64184 11.2386 3.66689 11.12 3.66689 11C3.66689 10.88 3.64184 10.7614 3.59334 10.6517C3.54971 10.5391 3.4843 10.4363 3.40084 10.3492ZM19.25 10.0833H6.41668C6.17356 10.0833 5.9404 10.1799 5.7685 10.3518C5.59659 10.5237 5.50001 10.7569 5.50001 11C5.50001 11.2431 5.59659 11.4763 5.7685 11.6482C5.9404 11.8201 6.17356 11.9167 6.41668 11.9167H19.25C19.4931 11.9167 19.7263 11.8201 19.8982 11.6482C20.0701 11.4763 20.1667 11.2431 20.1667 11C20.1667 10.7569 20.0701 10.5237 19.8982 10.3518C19.7263 10.1799 19.4931 10.0833 19.25 10.0833ZM3.40084 5.76583C3.31366 5.68238 3.21087 5.61696 3.09834 5.57333C2.93141 5.50314 2.74742 5.48396 2.5696 5.51822C2.39177 5.55248 2.22808 5.63864 2.09918 5.76583C2.01821 5.85493 1.9531 5.95725 1.90668 6.06833C1.85818 6.17806 1.83313 6.2967 1.83313 6.41667C1.83313 6.53663 1.85818 6.65527 1.90668 6.765C1.9531 6.87609 2.01821 6.9784 2.09918 7.0675C2.18828 7.14847 2.29059 7.21358 2.40168 7.26C2.56861 7.3302 2.7526 7.34938 2.93042 7.31512C3.10825 7.28086 3.27194 7.19469 3.40084 7.0675C3.48181 6.9784 3.54692 6.87609 3.59334 6.765C3.64184 6.65527 3.66689 6.53663 3.66689 6.41667C3.66689 6.2967 3.64184 6.17806 3.59334 6.06833C3.54692 5.95725 3.48181 5.85493 3.40084 5.76583ZM19.25 14.6667H6.41668C6.17356 14.6667 5.9404 14.7632 5.7685 14.9352C5.59659 15.1071 5.50001 15.3402 5.50001 15.5833C5.50001 15.8264 5.59659 16.0596 5.7685 16.2315C5.9404 16.4034 6.17356 16.5 6.41668 16.5H19.25C19.4931 16.5 19.7263 16.4034 19.8982 16.2315C20.0701 16.0596 20.1667 15.8264 20.1667 15.5833C20.1667 15.3402 20.0701 15.1071 19.8982 14.9352C19.7263 14.7632 19.4931 14.6667 19.25 14.6667Z" fill="white" fill-opacity="0.4"/>
</svg>
