<svg width="20" height="20" viewBox="0 0 20 20" fill="none" xmlns="http://www.w3.org/2000/svg">
<path fill-rule="evenodd" clip-rule="evenodd" d="M9.9999 0.833008C8.45281 0.833008 6.96908 1.44759 5.87511 2.54155C4.78115 3.63551 4.16657 5.11925 4.16657 6.66634C4.16657 9.46022 3.56901 11.1952 3.01832 12.2048C2.74183 12.7117 2.47259 13.0442 2.28557 13.2417C2.19184 13.3406 2.11818 13.4062 2.07384 13.4431C2.05165 13.4616 2.03677 13.473 2.03036 13.4778L2.02798 13.4795C1.72924 13.6847 1.59704 14.0601 1.70233 14.4078C1.80874 14.7593 2.13268 14.9997 2.4999 14.9997H17.4999C17.8671 14.9997 18.1911 14.7593 18.2975 14.4078C18.4028 14.0601 18.2706 13.6847 17.9718 13.4795L17.9694 13.4778C17.963 13.473 17.9482 13.4616 17.926 13.4431C17.8816 13.4062 17.808 13.3406 17.7142 13.2417C17.5272 13.0442 17.258 12.7117 16.9815 12.2048C16.4308 11.1952 15.8332 9.46022 15.8332 6.66634C15.8332 5.11925 15.2187 3.63551 14.1247 2.54155C13.0307 1.44759 11.547 0.833008 9.9999 0.833008ZM15.5183 13.0029C15.5817 13.1191 15.6454 13.2291 15.7088 13.333H4.29101C4.35441 13.2291 4.41807 13.1191 4.48148 13.0029C5.18079 11.7208 5.83324 9.70579 5.83324 6.66634C5.83324 5.56127 6.27222 4.50146 7.05362 3.72006C7.83503 2.93866 8.89483 2.49967 9.9999 2.49967C11.105 2.49967 12.1648 2.93866 12.9462 3.72006C13.7276 4.50146 14.1666 5.56127 14.1666 6.66634C14.1666 9.70579 14.819 11.7208 15.5183 13.0029ZM9.27908 17.0816C9.04815 16.6835 8.53821 16.5479 8.14011 16.7789C7.742 17.0098 7.60648 17.5197 7.83742 17.9179C8.05718 18.2967 8.37261 18.6112 8.75213 18.8298C9.13165 19.0484 9.56194 19.1634 9.99991 19.1634C10.4379 19.1634 10.8682 19.0484 11.2477 18.8298C11.6272 18.6112 11.9427 18.2967 12.1624 17.9179C12.3933 17.5197 12.2578 17.0098 11.8597 16.7789C11.4616 16.5479 10.9517 16.6835 10.7207 17.0816C10.6475 17.2079 10.5423 17.3127 10.4158 17.3855C10.2893 17.4584 10.1459 17.4968 9.99991 17.4968C9.85392 17.4968 9.71049 17.4584 9.58399 17.3855C9.45748 17.3127 9.35234 17.2079 9.27908 17.0816Z" fill="black"/>
</svg>
