<svg width="20" height="20" viewBox="0 0 20 20" fill="none" xmlns="http://www.w3.org/2000/svg">
<path d="M15.8334 9.16634H10.8334V4.16634C10.8334 3.94533 10.7456 3.73337 10.5893 3.57709C10.433 3.42081 10.2211 3.33301 10 3.33301C9.77903 3.33301 9.56707 3.42081 9.41079 3.57709C9.2545 3.73337 9.16671 3.94533 9.16671 4.16634V9.16634H4.16671C3.94569 9.16634 3.73373 9.25414 3.57745 9.41042C3.42117 9.5667 3.33337 9.77866 3.33337 9.99967C3.33337 10.2207 3.42117 10.4326 3.57745 10.5889C3.73373 10.7452 3.94569 10.833 4.16671 10.833H9.16671V15.833C9.16671 16.054 9.2545 16.266 9.41079 16.4223C9.56707 16.5785 9.77903 16.6663 10 16.6663C10.2211 16.6663 10.433 16.5785 10.5893 16.4223C10.7456 16.266 10.8334 16.054 10.8334 15.833V10.833H15.8334C16.0544 10.833 16.2663 10.7452 16.4226 10.5889C16.5789 10.4326 16.6667 10.2207 16.6667 9.99967C16.6667 9.77866 16.5789 9.5667 16.4226 9.41042C16.2663 9.25414 16.0544 9.16634 15.8334 9.16634Z" fill="white"/>
</svg>
