<svg width="20" height="20" viewBox="0 0 20 20" fill="none" xmlns="http://www.w3.org/2000/svg">
<path d="M18.0917 16.9085L15 13.8418C16.2001 12.3455 16.7813 10.4462 16.6241 8.53458C16.4668 6.62292 15.5831 4.84415 14.1546 3.56403C12.7262 2.28392 10.8615 1.59976 8.94414 1.65222C7.02674 1.70469 5.20231 2.4898 3.84599 3.84612C2.48968 5.20243 1.70457 7.02686 1.6521 8.94427C1.59963 10.8617 2.2838 12.7263 3.56391 14.1548C4.84403 15.5832 6.62279 16.4669 8.53446 16.6242C10.4461 16.7814 12.3454 16.2002 13.8417 15.0002L16.9084 18.0668C16.9858 18.1449 17.078 18.2069 17.1796 18.2492C17.2811 18.2915 17.39 18.3133 17.5 18.3133C17.6101 18.3133 17.719 18.2915 17.8205 18.2492C17.9221 18.2069 18.0142 18.1449 18.0917 18.0668C18.2419 17.9114 18.3259 17.7038 18.3259 17.4877C18.3259 17.2715 18.2419 17.0639 18.0917 16.9085ZM9.16671 15.0002C8.01298 15.0002 6.88517 14.658 5.92588 14.0171C4.9666 13.3761 4.21892 12.4651 3.77741 11.3992C3.3359 10.3332 3.22038 9.16036 3.44546 8.0288C3.67054 6.89725 4.22611 5.85785 5.04192 5.04204C5.85773 4.22624 6.89713 3.67066 8.02868 3.44558C9.16024 3.2205 10.3331 3.33602 11.399 3.77753C12.4649 4.21904 13.376 4.96672 14.0169 5.926C14.6579 6.88529 15 8.01311 15 9.16683C15 10.7139 14.3855 12.1977 13.2915 13.2916C12.1975 14.3856 10.7138 15.0002 9.16671 15.0002Z" fill="#959595"/>
</svg>
