<svg width="22" height="22" viewBox="0 0 22 22" fill="none" xmlns="http://www.w3.org/2000/svg">
<g clip-path="url(#clip0_6348_65536)">
<path d="M20.1667 13.7503H18.3334V11.0003C18.3334 10.7572 18.2368 10.5241 18.0649 10.3521C17.893 10.1802 17.6598 10.0837 17.4167 10.0837H11.9167V8.25033H13.75C13.9931 8.25033 14.2263 8.15375 14.3982 7.98184C14.5701 7.80993 14.6667 7.57677 14.6667 7.33366V1.83366C14.6667 1.59054 14.5701 1.35739 14.3982 1.18548C14.2263 1.01357 13.9931 0.916992 13.75 0.916992H8.25002C8.00691 0.916992 7.77375 1.01357 7.60184 1.18548C7.42993 1.35739 7.33335 1.59054 7.33335 1.83366V7.33366C7.33335 7.57677 7.42993 7.80993 7.60184 7.98184C7.77375 8.15375 8.00691 8.25033 8.25002 8.25033H10.0834V10.0837H4.58335C4.34024 10.0837 4.10708 10.1802 3.93517 10.3521C3.76326 10.5241 3.66669 10.7572 3.66669 11.0003V13.7503H1.83335C1.59024 13.7503 1.35708 13.8469 1.18517 14.0188C1.01326 14.1907 0.916687 14.4239 0.916687 14.667V20.167C0.916687 20.4101 1.01326 20.6433 1.18517 20.8152C1.35708 20.9871 1.59024 21.0837 1.83335 21.0837H7.33335C7.57647 21.0837 7.80963 20.9871 7.98154 20.8152C8.15344 20.6433 8.25002 20.4101 8.25002 20.167V14.667C8.25002 14.4239 8.15344 14.1907 7.98154 14.0188C7.80963 13.8469 7.57647 13.7503 7.33335 13.7503H5.50002V11.917H16.5V13.7503H14.6667C14.4236 13.7503 14.1904 13.8469 14.0185 14.0188C13.8466 14.1907 13.75 14.4239 13.75 14.667V20.167C13.75 20.4101 13.8466 20.6433 14.0185 20.8152C14.1904 20.9871 14.4236 21.0837 14.6667 21.0837H20.1667C20.4098 21.0837 20.643 20.9871 20.8149 20.8152C20.9868 20.6433 21.0834 20.4101 21.0834 20.167V14.667C21.0834 14.4239 20.9868 14.1907 20.8149 14.0188C20.643 13.8469 20.4098 13.7503 20.1667 13.7503ZM6.41669 15.5837V19.2503H2.75002V15.5837H6.41669ZM9.16669 6.41699V2.75033H12.8334V6.41699H9.16669ZM19.25 19.2503H15.5834V15.5837H19.25V19.2503Z" fill="white"/>
</g>
<defs>
<clipPath id="clip0_6348_65536">
<rect width="22" height="22" fill="white"/>
</clipPath>
</defs>
</svg>
