<svg width="20" height="20" viewBox="0 0 20 20" fill="none" xmlns="http://www.w3.org/2000/svg">
<path d="M5.83335 5.00033H5.00002V2.50033C5.00002 2.27931 4.91222 2.06735 4.75594 1.91107C4.59966 1.75479 4.3877 1.66699 4.16669 1.66699C3.94567 1.66699 3.73371 1.75479 3.57743 1.91107C3.42115 2.06735 3.33335 2.27931 3.33335 2.50033V5.00033H2.50002C2.27901 5.00033 2.06704 5.08812 1.91076 5.2444C1.75448 5.40068 1.66669 5.61265 1.66669 5.83366C1.66669 6.05467 1.75448 6.26663 1.91076 6.42291C2.06704 6.5792 2.27901 6.66699 2.50002 6.66699H5.83335C6.05437 6.66699 6.26633 6.5792 6.42261 6.42291C6.57889 6.26663 6.66669 6.05467 6.66669 5.83366C6.66669 5.61265 6.57889 5.40068 6.42261 5.2444C6.26633 5.08812 6.05437 5.00033 5.83335 5.00033ZM4.16669 8.33366C3.94567 8.33366 3.73371 8.42146 3.57743 8.57774C3.42115 8.73402 3.33335 8.94598 3.33335 9.16699V17.5003C3.33335 17.7213 3.42115 17.9333 3.57743 18.0896C3.73371 18.2459 3.94567 18.3337 4.16669 18.3337C4.3877 18.3337 4.59966 18.2459 4.75594 18.0896C4.91222 17.9333 5.00002 17.7213 5.00002 17.5003V9.16699C5.00002 8.94598 4.91222 8.73402 4.75594 8.57774C4.59966 8.42146 4.3877 8.33366 4.16669 8.33366ZM10 15.0003C9.77901 15.0003 9.56705 15.0881 9.41077 15.2444C9.25449 15.4007 9.16669 15.6126 9.16669 15.8337V17.5003C9.16669 17.7213 9.25449 17.9333 9.41077 18.0896C9.56705 18.2459 9.77901 18.3337 10 18.3337C10.221 18.3337 10.433 18.2459 10.5893 18.0896C10.7456 17.9333 10.8334 17.7213 10.8334 17.5003V15.8337C10.8334 15.6126 10.7456 15.4007 10.5893 15.2444C10.433 15.0881 10.221 15.0003 10 15.0003ZM17.5 8.33366H16.6667V2.50033C16.6667 2.27931 16.5789 2.06735 16.4226 1.91107C16.2663 1.75479 16.0544 1.66699 15.8334 1.66699C15.6123 1.66699 15.4004 1.75479 15.2441 1.91107C15.0878 2.06735 15 2.27931 15 2.50033V8.33366H14.1667C13.9457 8.33366 13.7337 8.42146 13.5774 8.57774C13.4212 8.73402 13.3334 8.94598 13.3334 9.16699C13.3334 9.38801 13.4212 9.59997 13.5774 9.75625C13.7337 9.91253 13.9457 10.0003 14.1667 10.0003H17.5C17.721 10.0003 17.933 9.91253 18.0893 9.75625C18.2456 9.59997 18.3334 9.38801 18.3334 9.16699C18.3334 8.94598 18.2456 8.73402 18.0893 8.57774C17.933 8.42146 17.721 8.33366 17.5 8.33366ZM15.8334 11.667C15.6123 11.667 15.4004 11.7548 15.2441 11.9111C15.0878 12.0674 15 12.2793 15 12.5003V17.5003C15 17.7213 15.0878 17.9333 15.2441 18.0896C15.4004 18.2459 15.6123 18.3337 15.8334 18.3337C16.0544 18.3337 16.2663 18.2459 16.4226 18.0896C16.5789 17.9333 16.6667 17.7213 16.6667 17.5003V12.5003C16.6667 12.2793 16.5789 12.0674 16.4226 11.9111C16.2663 11.7548 16.0544 11.667 15.8334 11.667ZM11.6667 11.667H10.8334V2.50033C10.8334 2.27931 10.7456 2.06735 10.5893 1.91107C10.433 1.75479 10.221 1.66699 10 1.66699C9.77901 1.66699 9.56705 1.75479 9.41077 1.91107C9.25449 2.06735 9.16669 2.27931 9.16669 2.50033V11.667H8.33335C8.11234 11.667 7.90038 11.7548 7.7441 11.9111C7.58782 12.0674 7.50002 12.2793 7.50002 12.5003C7.50002 12.7213 7.58782 12.9333 7.7441 13.0896C7.90038 13.2459 8.11234 13.3337 8.33335 13.3337H11.6667C11.8877 13.3337 12.0997 13.2459 12.2559 13.0896C12.4122 12.9333 12.5 12.7213 12.5 12.5003C12.5 12.2793 12.4122 12.0674 12.2559 11.9111C12.0997 11.7548 11.8877 11.667 11.6667 11.667Z" fill="#959595"/>
</svg>
