<svg width="22" height="22" viewBox="0 0 22 22" fill="none" xmlns="http://www.w3.org/2000/svg">
<path d="M17.4166 5.95866H14.6666V5.04199C14.6666 4.31265 14.3769 3.61317 13.8612 3.09745C13.3455 2.58172 12.646 2.29199 11.9166 2.29199H10.0833C9.35397 2.29199 8.65449 2.58172 8.13877 3.09745C7.62304 3.61317 7.33331 4.31265 7.33331 5.04199V5.95866H4.58331C3.85397 5.95866 3.15449 6.24839 2.63877 6.76412C2.12304 7.27984 1.83331 7.97931 1.83331 8.70866V16.9587C1.83331 17.688 2.12304 18.3875 2.63877 18.9032C3.15449 19.4189 3.85397 19.7087 4.58331 19.7087H17.4166C18.146 19.7087 18.8455 19.4189 19.3612 18.9032C19.8769 18.3875 20.1666 17.688 20.1666 16.9587V8.70866C20.1666 7.97931 19.8769 7.27984 19.3612 6.76412C18.8455 6.24839 18.146 5.95866 17.4166 5.95866ZM9.16665 5.04199C9.16665 4.79888 9.26322 4.56572 9.43513 4.39381C9.60704 4.2219 9.8402 4.12533 10.0833 4.12533H11.9166C12.1598 4.12533 12.3929 4.2219 12.5648 4.39381C12.7367 4.56572 12.8333 4.79888 12.8333 5.04199V5.95866H9.16665V5.04199ZM18.3333 16.9587C18.3333 17.2018 18.2367 17.4349 18.0648 17.6068C17.8929 17.7788 17.6598 17.8753 17.4166 17.8753H4.58331C4.3402 17.8753 4.10704 17.7788 3.93513 17.6068C3.76322 17.4349 3.66665 17.2018 3.66665 16.9587V12.3295H6.41665V13.292C6.41665 13.5351 6.51322 13.7683 6.68513 13.9402C6.85704 14.1121 7.0902 14.2087 7.33331 14.2087C7.57643 14.2087 7.80959 14.1121 7.98149 13.9402C8.1534 13.7683 8.24998 13.5351 8.24998 13.292V12.3295H13.75V13.292C13.75 13.5351 13.8466 13.7683 14.0185 13.9402C14.1904 14.1121 14.4235 14.2087 14.6666 14.2087C14.9098 14.2087 15.1429 14.1121 15.3148 13.9402C15.4867 13.7683 15.5833 13.5351 15.5833 13.292V12.3295H18.3333V16.9587ZM18.3333 10.542H3.66665V8.70866C3.66665 8.46554 3.76322 8.23239 3.93513 8.06048C4.10704 7.88857 4.3402 7.79199 4.58331 7.79199H17.4166C17.6598 7.79199 17.8929 7.88857 18.0648 8.06048C18.2367 8.23239 18.3333 8.46554 18.3333 8.70866V10.542Z" fill="white" fill-opacity="0.4"/>
</svg>
