<svg width="16" height="16" viewBox="0 0 16 16" fill="none" xmlns="http://www.w3.org/2000/svg">
<path d="M13.3333 3.99967H10.6667V3.33301C10.6667 2.80257 10.456 2.29387 10.0809 1.91879C9.70581 1.54372 9.1971 1.33301 8.66667 1.33301H7.33333C6.8029 1.33301 6.29419 1.54372 5.91912 1.91879C5.54405 2.29387 5.33333 2.80257 5.33333 3.33301V3.99967H2.66667C2.48986 3.99967 2.32029 4.06991 2.19526 4.19494C2.07024 4.31996 2 4.48953 2 4.66634C2 4.84315 2.07024 5.01272 2.19526 5.13775C2.32029 5.26277 2.48986 5.33301 2.66667 5.33301H3.33333V12.6663C3.33333 13.1968 3.54405 13.7055 3.91912 14.0806C4.29419 14.4556 4.8029 14.6663 5.33333 14.6663H10.6667C11.1971 14.6663 11.7058 14.4556 12.0809 14.0806C12.456 13.7055 12.6667 13.1968 12.6667 12.6663V5.33301H13.3333C13.5101 5.33301 13.6797 5.26277 13.8047 5.13775C13.9298 5.01272 14 4.84315 14 4.66634C14 4.48953 13.9298 4.31996 13.8047 4.19494C13.6797 4.06991 13.5101 3.99967 13.3333 3.99967ZM6.66667 3.33301C6.66667 3.1562 6.7369 2.98663 6.86193 2.8616C6.98695 2.73658 7.15652 2.66634 7.33333 2.66634H8.66667C8.84348 2.66634 9.01305 2.73658 9.13807 2.8616C9.2631 2.98663 9.33333 3.1562 9.33333 3.33301V3.99967H6.66667V3.33301ZM11.3333 12.6663C11.3333 12.8432 11.2631 13.0127 11.1381 13.1377C11.013 13.2628 10.8435 13.333 10.6667 13.333H5.33333C5.15652 13.333 4.98695 13.2628 4.86193 13.1377C4.7369 13.0127 4.66667 12.8432 4.66667 12.6663V5.33301H11.3333V12.6663Z" fill="#F43C3C"/>
</svg>
