<svg width="22" height="22" viewBox="0 0 22 22" fill="none" xmlns="http://www.w3.org/2000/svg">
<path d="M11.275 11.2013C11.7641 10.778 12.1564 10.2543 12.4253 9.66595C12.6942 9.07757 12.8334 8.43824 12.8334 7.79134C12.8334 6.57577 12.3505 5.40998 11.4909 4.55044C10.6314 3.69089 9.4656 3.20801 8.25002 3.20801C7.03444 3.20801 5.86866 3.69089 5.00911 4.55044C4.14957 5.40998 3.66669 6.57577 3.66669 7.79134C3.66668 8.43824 3.80584 9.07757 4.07472 9.66595C4.3436 10.2543 4.73591 10.778 5.22502 11.2013C3.94182 11.7824 2.85311 12.7207 2.08909 13.9042C1.32506 15.0876 0.918036 16.466 0.916687 17.8747C0.916687 18.1178 1.01326 18.3509 1.18517 18.5229C1.35708 18.6948 1.59024 18.7913 1.83335 18.7913C2.07647 18.7913 2.30963 18.6948 2.48153 18.5229C2.65344 18.3509 2.75002 18.1178 2.75002 17.8747C2.75002 16.416 3.32948 15.017 4.36093 13.9856C5.39238 12.9541 6.79133 12.3747 8.25002 12.3747C9.70871 12.3747 11.1077 12.9541 12.1391 13.9856C13.1706 15.017 13.75 16.416 13.75 17.8747C13.75 18.1178 13.8466 18.3509 14.0185 18.5229C14.1904 18.6948 14.4236 18.7913 14.6667 18.7913C14.9098 18.7913 15.143 18.6948 15.3149 18.5229C15.4868 18.3509 15.5834 18.1178 15.5834 17.8747C15.582 16.466 15.175 15.0876 14.411 13.9042C13.6469 12.7207 12.5582 11.7824 11.275 11.2013ZM8.25002 10.5413C7.70612 10.5413 7.17444 10.3801 6.7222 10.0779C6.26997 9.77571 5.91749 9.34622 5.70935 8.84372C5.50121 8.34122 5.44675 7.78829 5.55286 7.25484C5.65897 6.7214 5.92088 6.23139 6.30548 5.8468C6.69007 5.4622 7.18007 5.20029 7.71352 5.09418C8.24697 4.98807 8.7999 5.04253 9.3024 5.25067C9.8049 5.45881 10.2344 5.81129 10.5366 6.26352C10.8387 6.71576 11 7.24744 11 7.79134C11 8.52069 10.7103 9.22016 10.1946 9.73588C9.67884 10.2516 8.97937 10.5413 8.25002 10.5413ZM17.1784 10.8347C17.765 10.1741 18.1482 9.35797 18.2818 8.48465C18.4155 7.61133 18.2939 6.71799 17.9316 5.91217C17.5694 5.10636 16.982 4.4224 16.2401 3.94265C15.4982 3.46289 14.6335 3.20777 13.75 3.20801C13.5069 3.20801 13.2737 3.30459 13.1018 3.47649C12.9299 3.6484 12.8334 3.88156 12.8334 4.12467C12.8334 4.36779 12.9299 4.60095 13.1018 4.77286C13.2737 4.94476 13.5069 5.04134 13.75 5.04134C14.4794 5.04134 15.1788 5.33107 15.6946 5.8468C16.2103 6.36252 16.5 7.062 16.5 7.79134C16.4987 8.27281 16.371 8.7455 16.1297 9.16214C15.8884 9.57879 15.542 9.92477 15.125 10.1655C14.9891 10.2439 14.8756 10.3559 14.7954 10.4907C14.7151 10.6255 14.6708 10.7787 14.6667 10.9355C14.6629 11.0911 14.6987 11.2452 14.7709 11.3831C14.843 11.521 14.9492 11.6383 15.0792 11.7238L15.4367 11.9622L15.5559 12.0263C16.6608 12.5504 17.593 13.3793 18.2426 14.4155C18.8922 15.4516 19.2322 16.6518 19.2225 17.8747C19.2225 18.1178 19.3191 18.3509 19.491 18.5229C19.6629 18.6948 19.8961 18.7913 20.1392 18.7913C20.3823 18.7913 20.6155 18.6948 20.7874 18.5229C20.9593 18.3509 21.0559 18.1178 21.0559 17.8747C21.0633 16.468 20.711 15.0827 20.0324 13.8506C19.3537 12.6184 18.3713 11.5802 17.1784 10.8347Z" fill="white" fill-opacity="0.4"/>
</svg>
