<svg width="20" height="20" viewBox="0 0 20 20" fill="none" xmlns="http://www.w3.org/2000/svg">
<path d="M12.3417 10.2337C12.8692 9.66719 13.1663 8.9243 13.175 8.15033C13.175 7.31489 12.8431 6.51368 12.2524 5.92294C11.6617 5.3322 10.8605 5.00033 10.025 5.00033C9.18959 5.00033 8.38837 5.3322 7.79763 5.92294C7.20689 6.51368 6.87502 7.31489 6.87502 8.15033C6.88372 8.9243 7.18087 9.66719 7.70835 10.2337C6.9739 10.5994 6.34187 11.1419 5.86912 11.8125C5.39636 12.4831 5.09771 13.2607 5.00002 14.0753C4.97571 14.2963 5.04019 14.518 5.17928 14.6914C5.31837 14.8649 5.52067 14.976 5.74169 15.0003C5.9627 15.0246 6.18432 14.9602 6.35779 14.8211C6.53126 14.682 6.64238 14.4797 6.66669 14.2587C6.76613 13.4513 7.15739 12.7081 7.76676 12.1692C8.37613 11.6303 9.16153 11.3328 9.97502 11.3328C10.7885 11.3328 11.5739 11.6303 12.1833 12.1692C12.7927 12.7081 13.1839 13.4513 13.2834 14.2587C13.3065 14.4723 13.4114 14.6688 13.576 14.807C13.7406 14.9452 13.9522 15.0145 14.1667 15.0003H14.2584C14.4768 14.9752 14.6765 14.8647 14.8138 14.693C14.9512 14.5213 15.0151 14.3023 14.9917 14.0837C14.9012 13.2733 14.612 12.4979 14.1497 11.8262C13.6874 11.1545 13.0663 10.6075 12.3417 10.2337ZM10 9.63366C9.70665 9.63366 9.41986 9.54666 9.17592 9.38367C8.93199 9.22068 8.74187 8.98902 8.6296 8.71797C8.51733 8.44693 8.48795 8.14868 8.54519 7.86094C8.60242 7.5732 8.7437 7.3089 8.95115 7.10145C9.15859 6.894 9.4229 6.75273 9.71064 6.69549C9.99838 6.63826 10.2966 6.66763 10.5677 6.7799C10.8387 6.89217 11.0704 7.0823 11.2334 7.32623C11.3964 7.57016 11.4834 7.85695 11.4834 8.15033C11.4834 8.54373 11.3271 8.92102 11.0489 9.1992C10.7707 9.47738 10.3934 9.63366 10 9.63366ZM15.8334 1.66699H4.16669C3.50365 1.66699 2.86776 1.93038 2.39892 2.39923C1.93008 2.86807 1.66669 3.50395 1.66669 4.16699V15.8337C1.66669 16.4967 1.93008 17.1326 2.39892 17.6014C2.86776 18.0703 3.50365 18.3337 4.16669 18.3337H15.8334C16.4964 18.3337 17.1323 18.0703 17.6011 17.6014C18.07 17.1326 18.3334 16.4967 18.3334 15.8337V4.16699C18.3334 3.50395 18.07 2.86807 17.6011 2.39923C17.1323 1.93038 16.4964 1.66699 15.8334 1.66699ZM16.6667 15.8337C16.6667 16.0547 16.5789 16.2666 16.4226 16.4229C16.2663 16.5792 16.0544 16.667 15.8334 16.667H4.16669C3.94567 16.667 3.73371 16.5792 3.57743 16.4229C3.42115 16.2666 3.33335 16.0547 3.33335 15.8337V4.16699C3.33335 3.94598 3.42115 3.73402 3.57743 3.57774C3.73371 3.42146 3.94567 3.33366 4.16669 3.33366H15.8334C16.0544 3.33366 16.2663 3.42146 16.4226 3.57774C16.5789 3.73402 16.6667 3.94598 16.6667 4.16699V15.8337Z" fill="#959595"/>
</svg>
