<svg width="20" height="20" viewBox="0 0 20 20" fill="none" xmlns="http://www.w3.org/2000/svg">
<path d="M10.25 10.1837C10.6946 9.79877 11.0513 9.32273 11.2957 8.78785C11.5401 8.25296 11.6667 7.67175 11.6666 7.08366C11.6666 5.97859 11.2277 4.91878 10.4463 4.13738C9.66486 3.35598 8.60505 2.91699 7.49998 2.91699C6.39491 2.91699 5.3351 3.35598 4.5537 4.13738C3.7723 4.91878 3.33331 5.97859 3.33331 7.08366C3.33331 7.67175 3.45981 8.25296 3.70425 8.78785C3.94869 9.32273 4.30533 9.79877 4.74998 10.1837C3.58343 10.7119 2.5937 11.5649 1.89913 12.6408C1.20456 13.7166 0.83454 14.9698 0.833313 16.2503C0.833313 16.4713 0.92111 16.6833 1.07739 16.8396C1.23367 16.9959 1.44563 17.0837 1.66665 17.0837C1.88766 17.0837 2.09962 16.9959 2.2559 16.8396C2.41218 16.6833 2.49998 16.4713 2.49998 16.2503C2.49998 14.9242 3.02676 13.6525 3.96445 12.7148C4.90213 11.7771 6.1739 11.2503 7.49998 11.2503C8.82606 11.2503 10.0978 11.7771 11.0355 12.7148C11.9732 13.6525 12.5 14.9242 12.5 16.2503C12.5 16.4713 12.5878 16.6833 12.7441 16.8396C12.9003 16.9959 13.1123 17.0837 13.3333 17.0837C13.5543 17.0837 13.7663 16.9959 13.9226 16.8396C14.0788 16.6833 14.1666 16.4713 14.1666 16.2503C14.1654 14.9698 13.7954 13.7166 13.1008 12.6408C12.4063 11.5649 11.4165 10.7119 10.25 10.1837ZM7.49998 9.58366C7.00553 9.58366 6.52218 9.43704 6.11105 9.16233C5.69993 8.88763 5.3795 8.49718 5.19028 8.04037C5.00106 7.58355 4.95155 7.08089 5.04802 6.59593C5.14448 6.11098 5.38258 5.66552 5.73221 5.31589C6.08184 4.96626 6.5273 4.72816 7.01225 4.6317C7.49721 4.53523 7.99987 4.58474 8.45669 4.77396C8.9135 4.96318 9.30395 5.28361 9.57865 5.69473C9.85336 6.10586 9.99998 6.58921 9.99998 7.08366C9.99998 7.7467 9.73659 8.38259 9.26775 8.85143C8.79891 9.32027 8.16302 9.58366 7.49998 9.58366ZM15.6166 9.85033C16.15 9.24977 16.4983 8.50787 16.6198 7.71394C16.7413 6.92001 16.6308 6.10789 16.3015 5.37533C15.9721 4.64276 15.4381 4.02099 14.7637 3.58484C14.0893 3.1487 13.3032 2.91678 12.5 2.91699C12.279 2.91699 12.067 3.00479 11.9107 3.16107C11.7544 3.31735 11.6666 3.52931 11.6666 3.75033C11.6666 3.97134 11.7544 4.1833 11.9107 4.33958C12.067 4.49586 12.279 4.58366 12.5 4.58366C13.163 4.58366 13.7989 4.84705 14.2677 5.31589C14.7366 5.78473 15 6.42062 15 7.08366C14.9988 7.52136 14.8827 7.95108 14.6634 8.32984C14.444 8.70861 14.129 9.02314 13.75 9.24199C13.6264 9.31326 13.5232 9.41505 13.4503 9.53761C13.3773 9.66017 13.3371 9.79941 13.3333 9.94199C13.3298 10.0835 13.3624 10.2235 13.428 10.3489C13.4936 10.4743 13.5901 10.5809 13.7083 10.6587L14.0333 10.8753L14.1416 10.9337C15.1461 11.4101 15.9936 12.1637 16.5841 13.1056C17.1747 14.0475 17.4838 15.1386 17.475 16.2503C17.475 16.4713 17.5628 16.6833 17.7191 16.8396C17.8753 16.9959 18.0873 17.0837 18.3083 17.0837C18.5293 17.0837 18.7413 16.9959 18.8976 16.8396C19.0538 16.6833 19.1416 16.4713 19.1416 16.2503C19.1485 14.9715 18.8282 13.7122 18.2112 12.592C17.5942 11.4719 16.7011 10.5281 15.6166 9.85033Z" fill="white"/>
</svg>
